<?xml version="1.0" encoding="UTF-8"?>
<svg id="Capa_2" data-name="Capa 2" xmlns="http://www.w3.org/2000/svg" viewBox="0 0 48 48">
  <defs>
    <style>
      .cls-1 {
        fill: none;
      }

      .cls-2 {
        fill: #232323;
      }
    </style>
  </defs>
  <g id="Capa_1-2" data-name="Capa 1">
    <g>
      <rect class="cls-1" width="48" height="48"/>
      <path class="cls-2" d="M8.43,44.1c-2.25,0-3.94-.54-5.09-1.63s-1.86-2.55-2.15-4.38c-.29-1.83-.26-3.86.08-6.09.34-2.23.88-4.48,1.6-6.74.72-2.27,1.51-4.41,2.37-6.42.85-2.01,1.64-3.71,2.37-5.09.4-.76.92-1.21,1.58-1.33.65-.13,1.28-.03,1.88.3s1.03.8,1.31,1.41.21,1.29-.19,2.01c-1.6,3.05-2.87,5.95-3.81,8.7-.94,2.76-1.55,5.19-1.82,7.32s-.25,3.79.05,5c.31,1.22.92,1.82,1.82,1.82.83,0,1.75-.33,2.75-.98,1-.65,2.04-1.78,3.13-3.37,1.16-1.7,2.29-3.9,3.4-6.58,1.11-2.68,2.09-5.86,2.96-9.52.18-.8.57-1.34,1.17-1.63.6-.29,1.23-.35,1.9-.19.67.16,1.21.5,1.6,1.01.4.51.51,1.18.33,2.01-.91,3.88-1.36,7.23-1.36,10.04s.27,4.85.82,6.12c.4.91.88,1.56,1.44,1.96.56.4,1.19.6,1.88.6.72,0,1.5-.31,2.34-.92.83-.62,1.66-1.68,2.48-3.18s1.53-3.56,2.15-6.17c.4-1.7.69-3.34.87-4.9-3.01-.83-5.4-2.23-7.18-4.19-1.78-1.96-2.67-4.64-2.67-8.05,0-2.14.49-3.86,1.47-5.17.98-1.31,2.48-1.96,4.51-1.96s3.72.68,5.06,2.04,2.35,3.17,3.02,5.44c.67,2.27,1.02,4.8,1.06,7.59l2.99.11c.83,0,1.45.25,1.85.76.4.51.6,1.11.6,1.8s-.2,1.29-.6,1.79c-.4.51-1.02.76-1.85.76l-3.21-.11c-.11.91-.24,1.79-.41,2.67-.16.87-.34,1.74-.52,2.61-.65,2.83-1.51,5.3-2.58,7.43-1.07,2.12-2.38,3.78-3.92,4.98-1.54,1.2-3.36,1.79-5.47,1.79-1.74,0-3.35-.52-4.81-1.55-1.47-1.03-2.57-2.38-3.29-4.05-.15-.33-.28-.67-.41-1.03-.13-.36-.23-.72-.3-1.09l-1.09,1.74c-1.31,1.89-2.79,3.44-4.46,4.68-1.67,1.23-3.55,1.85-5.66,1.85ZM36.39,17.77c-.15-1.99-.47-3.63-.98-4.92-.51-1.29-1.04-2.25-1.6-2.88-.56-.63-1.03-.95-1.39-.95-.07,0-.22.06-.44.19-.22.13-.33.73-.33,1.82,0,1.49.4,2.81,1.2,3.97.8,1.16,1.98,2.09,3.54,2.77Z"/>
    </g>
  </g>
</svg>