<?xml version="1.0" encoding="UTF-8"?>
<svg id="Capa_2" data-name="Capa 2" xmlns="http://www.w3.org/2000/svg" viewBox="0 0 294 256.91">
  <defs>
    <style>
      .cls-1 {
        fill: #282828;
      }
    </style>
  </defs>
  <g id="Capa_1-2" data-name="Capa 1">
    <path class="cls-1" d="M47.51,256.91c-14.37,0-25.2-3.48-32.5-10.43-7.3-6.95-11.88-16.28-13.73-27.98-1.86-11.7-1.69-24.69.52-38.94,2.2-14.25,5.62-28.62,10.26-43.11,4.63-14.48,9.68-28.16,15.13-41.02,5.44-12.86,10.48-23.7,15.12-32.5,2.55-4.87,5.91-7.7,10.08-8.52,4.17-.81,8.17-.17,11.99,1.91,3.83,2.09,6.6,5.1,8.34,9.04,1.74,3.94,1.33,8.23-1.21,12.86-10.2,19.47-18.31,38.02-24.34,55.63-6.03,17.62-9.91,33.2-11.64,46.76-1.74,13.56-1.63,24.22.35,31.98,1.96,7.77,5.85,11.64,11.64,11.64,5.32,0,11.18-2.08,17.56-6.26,6.37-4.17,13.03-11.35,19.99-21.55,7.41-10.9,14.66-24.91,21.73-42.07,7.07-17.15,13.39-37.43,18.95-60.84,1.16-5.09,3.65-8.57,7.48-10.43,3.83-1.85,7.88-2.26,12.17-1.21,4.28,1.04,7.7,3.19,10.26,6.43,2.55,3.25,3.24,7.53,2.09,12.87-5.8,24.8-8.69,46.19-8.69,64.14s1.74,31,5.21,39.11c2.55,5.8,5.62,9.96,9.22,12.52,3.59,2.55,7.59,3.82,11.99,3.82,4.63,0,9.61-1.96,14.95-5.91,5.33-3.94,10.6-10.72,15.82-20.34s9.78-22.77,13.73-39.46c2.55-10.9,4.4-21.33,5.56-31.29-19.24-5.33-34.54-14.26-45.89-26.77-11.36-12.51-17.03-29.66-17.03-51.45,0-13.67,3.13-24.69,9.39-33.03,6.26-8.34,15.87-12.51,28.85-12.51s23.75,4.34,32.33,13.03c8.58,8.69,15.01,20.28,19.3,34.77,4.28,14.49,6.55,30.65,6.78,48.5l19.12.69c5.32,0,9.27,1.63,11.82,4.87,2.55,3.25,3.83,7.08,3.83,11.48s-1.28,8.23-3.83,11.47c-2.55,3.25-6.49,4.87-11.82,4.87l-20.51-.69c-.7,5.8-1.56,11.47-2.61,17.03-1.04,5.56-2.15,11.12-3.3,16.69-4.17,18.08-9.68,33.89-16.51,47.46-6.84,13.56-15.19,24.16-25.03,31.81-9.85,7.65-21.5,11.47-34.93,11.47-11.13,0-21.38-3.3-30.77-9.91-9.38-6.6-16.39-15.24-21.03-25.9-.93-2.09-1.8-4.28-2.61-6.6-.81-2.31-1.45-4.63-1.91-6.95l-6.95,11.13c-8.34,12.05-17.85,22.02-28.5,29.89-10.66,7.88-22.71,11.82-36.16,11.82ZM226.21,88.65c-.93-12.74-3.01-23.23-6.26-31.46-3.25-8.22-6.67-14.37-10.26-18.42-3.6-4.05-6.55-6.08-8.87-6.08-.47,0-1.39.41-2.79,1.21-1.39.81-2.08,4.69-2.08,11.64,0,9.51,2.55,17.96,7.64,25.38,5.1,7.43,12.63,13.33,22.6,17.73Z"/>
  </g>
</svg>