<?xml version="1.0" encoding="UTF-8"?>
<svg id="Capa_2" data-name="Capa 2" xmlns="http://www.w3.org/2000/svg" viewBox="0 0 858.67 289.69">
  <defs>
    <style>
      .cls-1 {
        fill: #282828;
      }
    </style>
  </defs>
  <g id="Capa_1-2" data-name="Capa 1">
    <g>
      <g>
        <path class="cls-1" d="M851.12,230.04c-23.43-.93-46.86-1.62-70.29-2.24-.74,2.7-1.48,5.37-2.35,7.73-.83,2.27-1.95,4.18-3,6.17,21.34.6,42.68,1.16,64.01,2,9.21.36,30.48-12.92,11.63-13.66Z"/>
        <path class="cls-1" d="M51.28,258.05c-12.04,1.31-24.09,2.49-36.12,3.88-12.61,1.45-24.37,15.28-4.57,13,13.36-1.54,26.74-2.88,40.11-4.32.17-4.18.34-8.35.57-12.56Z"/>
        <path class="cls-1" d="M522.43,240.58c.21-4.51.44-9.02.73-13.52-110.56,2.36-221.04,8.11-331.27,17.3-32.43,2.7-64.83,5.76-97.2,9.03-.35,1.31-.74,2.51-1.09,3.83-.81,3.05-1.38,6-2.13,9.01,143.24-14.33,287.03-22.84,430.95-25.65Z"/>
        <path class="cls-1" d="M718.82,238.15c-.66-3.63-.54-7.47.28-11.57-50.9-.77-101.8-.81-152.69-.13-1.19,4.41-2.12,8.94-3.22,13.41,30.33-.36,60.67-.53,91.01-.37,21.75.12,43.5.54,65.25.92-.2-.76-.48-1.47-.63-2.27Z"/>
      </g>
      <g>
        <path class="cls-1" d="M170.87,115.26c3.28,2.95,8.14,4.26,14.59,3.92,5.83-.3,11.1-2.3,15.84-5.99,4.73-3.68,9.02-8.32,12.88-13.93.63-.87,1.22-1.73,1.79-2.6.57-.86,1.12-1.77,1.64-2.74.2.93.49,1.9.86,2.92.36,1.03.76,1.99,1.17,2.9,2.08,4.68,5.23,8.39,9.44,11.14,4.22,2.74,8.82,3.98,13.8,3.72,7.91-.41,14.46-3.71,19.66-9.92s9.31-14.28,12.33-24.22c4.69,1.52,9.41,2.16,14.2,1.91,5.83-.3,11.63-1.5,17.4-3.57,1.31-.47,2.48-1.08,3.73-1.61.27,6.58,1.53,12.59,4.15,17.82,2.91,5.83,7.07,10.35,12.48,13.54,5.41,3.19,11.86,4.61,19.35,4.22,5.93-.31,12.3-2.25,19.11-5.84,6.82-3.59,14.07-9.85,21.77-18.78,1.56-1.85,2.22-3.72,1.96-5.64s-1.12-3.47-2.58-4.7c-1.45-1.22-3.14-1.84-5.07-1.84s-3.67.93-5.23,2.77c-4.79,5.54-8.95,9.68-12.49,12.35-3.54,2.69-6.71,4.49-9.52,5.42-2.81.93-5.46,1.47-7.96,1.59-9.05.48-15.25-2.69-18.57-9.49,5.2-3.6,10.2-7.24,14.98-10.92,4.78-3.7,9.36-7.56,13.73-11.65,5.83-5.4,10.43-10.31,13.81-14.68,3.38-4.39,5.07-9.45,5.07-15.18,0-3.85-.97-7.07-2.89-9.68-1.92-2.61-4.45-4.56-7.57-5.85-3.12-1.28-6.55-1.84-10.3-1.64-4.68.25-9.6,1.89-14.74,4.91-5.15,3.02-9.99,7.12-14.51,12.31-4.53,5.19-8.2,11.09-11,17.74-.82,1.94-1.26,3.98-1.84,5.98-2.92,1.84-6.22,3.47-10.09,4.79-4.52,1.53-8.92,2.41-13.19,2.64-1.87.1-3.72-.01-5.54-.34-1.82-.31-3.51-.81-5.07-1.45,1.56-8.3,2.42-16.41,2.58-24.32.15-7.91-.55-15.02-2.11-21.34-1.56-6.32-4-11.28-7.33-14.9-3.33-3.63-7.64-5.3-12.95-5.02-4.37.23-7.8,1.57-10.3,4.06-2.5,2.46-4.27,5.66-5.31,9.56-1.03,3.9-1.56,8.14-1.56,12.71,0,10.62,1.92,19.93,5.77,27.94,3.85,8.01,8.74,14.36,14.67,19.05-1.77,6.64-3.77,11.89-6.01,15.75-2.24,3.87-4.47,6.61-6.71,8.24-2.24,1.63-4.34,2.49-6.32,2.59-1.97.1-3.77-.37-5.38-1.43-1.61-1.05-2.99-2.86-4.14-5.4-1.56-3.56-2.36-9.34-2.41-17.35-.06-8.01,1.28-17.69,3.97-29.07.52-2.32.21-4.2-.93-5.66-1.14-1.43-2.65-2.37-4.53-2.79-1.87-.43-3.66-.18-5.38.75-1.72.91-2.89,2.59-3.52,5.02-2.49,10.53-5.33,19.81-8.5,27.82-3.17,8.03-6.43,14.56-9.75,19.63-3.23,4.75-6.24,8.08-9.05,9.99-2.81,1.92-5.42,2.94-7.8,3.07-2.6.13-4.34-1.51-5.23-4.96-.89-3.44-.94-8.22-.16-14.34.78-6.13,2.52-13.21,5.23-21.26,2.7-8.05,6.35-16.56,10.93-25.54,1.14-2.14,1.32-4.07.54-5.8-.77-1.73-2.03-3.02-3.74-3.86-1.71-.84-3.51-1.05-5.38-.58-1.87.46-3.38,1.82-4.53,4.06-2.08,4.07-4.34,9.04-6.79,14.95-2.44,5.91-4.7,12.16-6.79,18.77-2.08,6.61-3.61,13.14-4.6,19.59-.98,6.45-1.07,12.27-.23,17.49.83,5.21,2.89,9.28,6.17,12.24ZM328.39,58.01c2.08-4.69,4.65-8.83,7.72-12.42,3.07-3.6,6.25-6.44,9.52-8.53,3.28-2.1,6.22-3.22,8.82-3.36,2.81-.15,4.53.26,5.15,1.22.63.95.94,1.64.94,2.06,0,.84-.97,2.88-2.89,6.16-1.92,3.28-5.59,7.44-11,12.51-3.22,3.09-6.66,6.05-10.3,8.9-3.64,2.85-7.44,5.66-11.38,8.47.2-5.31,1.35-10.32,3.43-15ZM258.8,41.3c-1.56-5.17-2.34-10.41-2.34-15.71,0-4.27.17-7.11.54-8.54.36-1.42.91-2.2,1.64-2.34.1,0,.7.66,1.8,2.01,1.09,1.35,2.2,3.58,3.35,6.69,1.15,3.12,1.97,7.25,2.5,12.43.52,5.17.26,11.58-.77,19.23-2.92-4-5.15-8.59-6.71-13.77Z"/>
        <path class="cls-1" d="M313,103.91c-2.44-.5-4.91-.34-7.41.48-2.5.81-4.6,2.37-6.32,4.7-1.71,2.32-2.62,5.57-2.72,9.73v.47c0,2.92,1.12,5.38,3.35,7.39,2.24,2.02,4.81,2.95,7.72,2.8,4.27-.22,7.68-1.94,10.22-5.14,2.55-3.21,3.82-6.77,3.82-10.74,0-2.6-.83-4.74-2.5-6.43-1.67-1.68-3.72-2.76-6.17-3.27Z"/>
        <path class="cls-1" d="M820.84,137.85c-1.15-1.5-2.66-2.44-4.53-2.8-1.87-.37-3.75.22-5.62,1.77-5.62,4.57-11.05,9.12-16.31,13.66-5.25,4.54-10.27,9.07-15.05,13.59,0-.22.02-.5.08-.87.05-.37.13-.75.23-1.17.72-5.24,1.56-10.8,2.5-16.68.9-5.69,1.86-11.49,2.87-17.4.27-.53.56-1.09.81-1.6l13.32-23.71c2.71-4.72,5.17-9.73,7.42-15.06,2.24-5.32,4.13-10.59,5.69-15.83,1.56-5.22,2.58-10.04,3.05-14.43.47-4.39.23-8.13-.7-11.2-.93-3.07-2.76-5.05-5.46-5.95-2.81-1-5.67-.12-8.58,2.64-2.91,2.76-5.75,6.7-8.51,11.84-2.76,5.14-5.33,10.88-7.73,17.26-2.39,6.36-4.53,12.79-6.39,19.3-1.87,6.5-3.33,12.36-4.37,17.63-1.04,5.23-1.93,10.49-2.88,15.75-1.14,2.18-2.4,4.52-3.83,7.07-2.7,4.83-5.68,9.92-8.9,15.3-3.23,5.37-6.55,10.57-9.99,15.58-3.43,5.02-6.76,9.47-9.99,13.38-4.16,5.01-7.46,8.31-9.91,9.89-2.44,1.57-4.55,2.43-6.32,2.51-1.36.08-2.37-.91-3.04-2.96-.68-2.05-.23-6.02,1.32-11.93,4.99-18.68,9.91-37.32,14.75-55.94,4.83-18.62,9.7-37.14,14.59-55.61.62-2.32.39-4.21-.7-5.66-1.09-1.44-2.57-2.37-4.45-2.8-1.87-.43-3.66-.2-5.38.67-1.71.87-2.88,2.46-3.5,4.78-1.67,6.34-3.67,13.54-6.01,21.61-2.34,8.08-4.94,16.55-7.8,25.37-2.86,8.85-5.91,17.48-9.13,25.92-3.23,8.44-6.53,16.22-9.91,23.3-3.38,7.09-6.78,12.98-10.22,17.63-3.85,5.09-7.77,8.91-11.78,11.46-4,2.55-7.57,3.92-10.69,4.08-4.58.24-7.8-1.31-9.68-4.65-1.87-3.33-2.81-7.19-2.81-11.56,0-5.3,1.17-10.61,3.5-15.94,2.35-5.31,5.49-10.22,9.44-14.69,3.96-4.48,8.37-8.14,13.26-11,4.89-2.86,9.84-4.41,14.83-4.67,1.66-.09,3.14-.04,4.45.16,1.3.18,2.16.38,2.57.57,2.08.93,4.01.96,5.77.09,1.77-.88,3.1-2.2,3.98-3.96s1.12-3.57.7-5.42c-.41-1.85-1.71-3.23-3.9-4.16-3.96-1.78-8.48-2.53-13.58-2.26-7.07.37-13.94,2.39-20.6,6.07-6.65,3.69-12.67,8.5-18.03,14.44-5.35,5.96-9.59,12.53-12.71,19.72-1.37,3.15-2.31,6.32-3.08,9.51-1.28,3.59-2.81,7.21-4.87,10.87-2.81,4.98-5.72,9.02-8.74,12.09-2.6,2.53-5.17,4.46-7.73,5.79-2.55,1.33-4.81,2.04-6.79,2.15-2.6.13-4.18-.48-4.76-1.86-.58-1.37-.86-2.84-.86-4.4,0-1.87.39-4.63,1.17-8.25.78-3.64,1.71-7.48,2.81-11.54,1.09-4.06,2.16-7.83,3.2-11.33,1.03-3.48,1.82-6.08,2.34-7.77,2.19-6.87,2.81-12.86,1.88-17.97-.94-5.09-3.21-8.98-6.79-11.66-3.59-2.67-8.19-3.86-13.81-3.57-6.24.33-11.64,2.54-16.22,6.63-4.58,4.09-8.59,9.14-12.02,15.14-3.02,5.25-6.17,11.82-9.44,19.68-3.28,7.87-6.53,16.57-9.75,26.1,1.04-7.65,2.16-15.23,3.36-22.72,1.19-7.51,2.52-15.09,3.98-22.76.02-.08-.01-.14,0-.23.37-1.42.46-2.76-.08-3.91-.78-1.68-2.06-2.9-3.82-3.7-1.77-.78-3.57-.93-5.38-.41-.51.14-.92.51-1.38.79-.24.11-.5.13-.74.26-1.42.78-2.33,2.27-2.91,4.21-1.59,3.24-3.54,6.8-5.97,10.76-2.7,4.41-5.59,8.98-8.66,13.72-3.07,4.74-6.17,9.24-9.28,13.52-3.12,4.28-6.04,8.04-8.74,11.3-5.1,6.3-9.55,10.78-13.35,13.41-3.8,2.65-7.21,4.05-10.22,4.2-1.56.08-3.19-.43-4.91-1.53-1.71-1.1-2.91-3.17-3.59-6.21-.68-3.04-.34-7.4,1.02-13.09l9.56-40.6s0-.03.01-.05l6.5-27.59,22.62-2.29c2.4-.23,4.14-1.14,5.23-2.76s1.59-3.38,1.49-5.31c-.11-1.91-.76-3.54-1.96-4.88-1.2-1.35-2.99-1.9-5.38-1.68l-18.41,1.9,4.06-16.91c.52-2.31.18-4.18-1.01-5.63-1.2-1.45-2.76-2.38-4.68-2.8-1.93-.43-3.75-.2-5.47.68-1.71.86-2.89,2.56-3.5,5.1l-5,21.18-17.48,1.84c-2.29.23-4.01,1.15-5.14,2.77-1.15,1.62-1.67,3.38-1.56,5.31.1,1.92.78,3.54,2.02,4.89,1.25,1.33,3.02,1.9,5.31,1.66l13.26-1.32-5.72,24.13c-2.26,4.36-4.86,9.13-7.93,14.43-3.38,5.85-7.1,11.84-11.16,17.98-4.06,6.15-8.32,11.99-12.79,17.52-4.68,5.77-8.53,9.77-11.55,11.99-3.02,2.24-5.62,3.42-7.8,3.53-2.61.14-4.24-.5-4.92-1.92-.67-1.42-1.02-2.95-1.02-4.63,0-1.97.39-4.77,1.17-8.41.78-3.64,1.69-7.48,2.73-11.54,1.04-4.05,2.05-7.8,3.05-11.23.98-3.44,1.68-5.94,2.1-7.52,3.01-10.78,2.81-19.08-.63-24.93-3.43-5.85-9.52-8.56-18.25-8.1-6.34.33-11.99,2.56-16.93,6.66-4.95,4.11-9.23,9.17-12.87,15.19-1.56,2.57-3.73,6.43-6.48,11.56-2.76,5.14-5.7,10.71-8.81,16.69.72-4.61,1.5-9.24,2.34-13.85.83-4.63,1.77-9.3,2.81-14.05.52-2.21.16-4.06-1.09-5.56-1.25-1.49-2.84-2.45-4.76-2.87-.45-.1-.87-.03-1.3-.05-.07,0-.14,0-.21,0-.62-.01-1.23,0-1.82.14-.24.04-.48,0-.73.05-.41.11-.75.41-1.12.6-.09.05-.19.05-.28.1-.05.03-.07.08-.12.11-1.12.68-2.13,1.61-2.92,3.09-3.54,7.16-8.17,15.3-13.89,24.43-5.73,9.16-12.12,18.23-19.19,27.23-4.58,5.75-8.32,9.7-11.23,11.83-2.92,2.12-5.52,3.24-7.81,3.37-2.7.14-4.47-.54-5.3-2.06s-1.24-3.26-1.24-5.24c0-1.77.29-4.53.85-8.31.57-3.78,1.3-8.11,2.19-12.99.88-4.88,1.92-10.01,3.12-15.38s2.42-10.53,3.66-15.48c.63-2.43.34-4.39-.85-5.89-1.2-1.5-2.76-2.46-4.68-2.88-1.93-.42-3.78-.2-5.54.68-1.2.59-2.04,1.71-2.72,3.07-.23.33-.51.55-.72.94-1.77,3.42-3.88,7.35-6.32,11.8-2.44,4.44-5.13,9.08-8.04,13.92-2.91,4.83-5.88,9.52-8.9,14.05-3.02,4.53-6.03,8.63-9.05,12.33-4.79,5.97-8.9,10.1-12.33,12.34-3.44,2.26-6.55,3.47-9.37,3.61-1.77.1-3.56-.77-5.38-2.6-1.82-1.83-2.26-4.75-1.32-8.76.52-2.32,1.58-5.7,3.2-10.15,1.61-4.45,3.74-9.63,6.4-15.54,2.65-5.92,5.79-12.19,9.44-18.83.93-1.61,1.22-3.26.86-4.97-.36-1.69-1.17-3.09-2.42-4.17-1.25-1.07-2.86-1.56-4.84-1.46l-32.61,1.56c1.04-4.22,1.09-8.15.16-11.8-.94-3.64-2.81-6.55-5.62-8.76-2.81-2.19-6.65-3.16-11.54-2.9-3.85.2-7.29,1.31-10.31,3.35-3.02,2.03-5.41,4.6-7.17,7.7-1.77,3.12-2.65,6.49-2.65,10.13,0,6.03,1.97,10.59,5.93,13.66,2.49,1.94,5.57,2.95,8.93,3.54-2.11,3.66-4.33,7.43-6.83,11.49-5.66,9.19-12.04,18.23-19.11,27.14-4.48,5.64-8.22,9.56-11.23,11.73-3.02,2.19-5.57,3.34-7.64,3.45-2.29.12-3.94-.44-4.91-1.7-1-1.24-1.49-2.81-1.49-4.67s.39-4.63,1.17-8.25c.78-3.64,1.71-7.51,2.81-11.63,1.1-4.11,2.17-7.88,3.2-11.31,1.04-3.44,1.77-5.85,2.18-7.21,2.29-6.77,2.99-12.72,2.11-17.82-.88-5.1-3.15-9.07-6.79-11.9-3.64-2.82-8.48-4.08-14.51-3.77-6.14.32-11.36,2.53-15.68,6.6-4.32,4.07-8.34,9.12-12.09,15.15-2.6,4.29-5.57,10.35-8.9,18.17-3.33,7.82-6.66,16.72-9.99,26.66.94-7.32,2.03-14.74,3.28-22.24,1.25-7.51,2.55-14.94,3.9-22.29.42-2.3,0-4.17-1.25-5.54-1.25-1.4-2.84-2.25-4.76-2.57-1.93-.3-3.72,0-5.38.91-1.67.91-2.76,2.64-3.28,5.16-4.06,20.92-7.21,41.78-9.44,62.59-2.24,20.82-3.61,41.55-4.13,62.17-.11,2.19.52,3.9,1.87,5.12,1.35,1.24,2.94,1.9,4.76,2.03,1.82.11,3.54-.36,5.15-1.37,1.61-1.02,2.63-2.64,3.05-4.84,1.97-9.57,4.26-19.26,6.86-29.07,2.59-9.81,5.3-19.31,8.11-28.52,2.81-9.2,5.59-17.74,8.35-25.63,2.76-7.9,5.38-14.74,7.89-20.55,2.49-5.79,4.62-10.15,6.39-13.04,3.54-5.7,6.45-9.47,8.74-11.3,2.29-1.83,4.48-2.81,6.55-2.93,3.12-.16,5.12,1.12,6.01,3.83.88,2.7.6,6.28-.86,10.72-.63,1.71-1.49,4.29-2.58,7.79-1.09,3.49-2.24,7.4-3.44,11.72-1.19,4.33-2.21,8.63-3.04,12.88-.83,4.25-1.25,7.95-1.25,11.07,0,6.24,2.06,11.26,6.17,15.04,4.11,3.8,9.18,5.52,15.22,5.21,6.13-.32,11.49-2.41,16.07-6.3,4.57-3.89,9.26-8.81,14.04-14.78,7.49-9.33,14.23-18.82,20.21-28.44,4.27-6.87,7.8-13.03,10.98-18.87l26.08-1.26c-4.06,8.13-7.33,15.35-9.83,21.66-2.5,6.33-4.22,11.49-5.15,15.49-1.15,4.95-1.07,9.68.23,14.18,1.3,4.51,3.74,8.13,7.33,10.85,3.59,2.72,8.2,3.94,13.81,3.64,6.25-.32,11.99-2.42,17.25-6.29,5.24-3.85,10.47-9.04,15.68-15.56,4.08-4.97,8.06-10.5,11.97-16.5-.76,5.13-1.21,9.47-1.21,12.66,0,7.07,2.13,12.44,6.39,16.12,4.27,3.69,9.31,5.37,15.14,5.06,6.14-.32,11.52-2.42,16.15-6.31,4.63-3.89,9.34-8.81,14.13-14.79,5.42-6.84,10.31-13.73,14.95-20.64-1.54,10.99-2.79,21.93-3.56,32.84-.11,1.97.39,3.6,1.49,4.84s2.46,2.05,4.13,2.44c1.66.38,3.28.23,4.84-.42s2.81-1.94,3.75-3.85c1.77-3.64,3.84-7.87,6.24-12.74,2.39-4.86,4.91-9.91,7.56-15.14,2.66-5.24,5.26-10.32,7.8-15.24,2.55-4.91,4.84-9.24,6.87-13,2.03-3.75,3.61-6.54,4.76-8.36,3.23-5.38,6.25-9.07,9.05-11.09,2.81-2.01,5.56-3.1,8.27-3.24,2.81-.15,4.6,1.12,5.38,3.78.78,2.67.5,6.43-.86,11.27-.42,1.59-1.15,4.05-2.18,7.38-1.04,3.33-2.13,7.14-3.28,11.4-1.14,4.28-2.13,8.52-2.96,12.73-.84,4.2-1.25,7.96-1.25,11.29,0,6.57,2.01,11.68,6.01,15.37,4.01,3.7,8.97,5.38,14.91,5.07,6.24-.32,11.67-2.45,16.3-6.39,4.63-3.94,9.39-8.95,14.28-15.02,3.69-4.52,7.04-9.27,10.37-14.04-.47,3.12-.77,6.21-.7,9.24.1,4.62.96,8.79,2.58,12.5,1.61,3.71,4.13,6.63,7.56,8.73,3.44,2.11,7.96,3.02,13.58,2.72,6.76-.35,12.9-2.64,18.41-6.9,5.52-4.24,10.98-9.68,16.38-16.3,2.92-3.59,6.01-7.65,9.29-12.19,1.92-2.66,3.79-5.5,5.68-8.27-1.21,8.54-2.37,17.09-3.26,25.61-2.19,20.81-3.54,41.54-4.06,62.17,0,2.07.62,3.71,1.87,4.9,1.25,1.17,2.79,1.86,4.6,2.02,1.82.16,3.52-.23,5.07-1.21,1.56-.96,2.55-2.55,2.97-4.76,2.5-11.89,5.33-23.71,8.51-35.48,3.17-11.76,6.5-22.93,9.99-33.53,3.48-10.58,6.88-20.02,10.22-28.31,3.33-8.29,6.4-14.9,9.21-19.84,3.02-5.25,5.82-8.85,8.43-10.81,2.59-1.96,5.04-3,7.33-3.12,2.5-.13,4.24,1.06,5.23,3.55.98,2.5.7,6.18-.86,11.04-.62,1.91-1.48,4.61-2.57,8.1-1.09,3.5-2.22,7.38-3.36,11.64-1.14,4.28-2.13,8.52-2.96,12.73-.84,4.2-1.25,7.91-1.25,11.14,0,6.35,1.97,11.37,5.93,15.05,3.95,3.7,8.84,5.39,14.67,5.09,4.58-.24,8.95-1.54,13.11-3.89,4.16-2.36,7.96-5.23,11.4-8.64,1.8-1.76,3.43-3.75,5.03-5.76.31.69.45,1.53.81,2.17,2.55,4.55,5.93,7.92,10.15,10.09,4.21,2.17,8.71,3.14,13.5,2.88,6.55-.34,12.69-2.49,18.41-6.44,5.72-3.93,10.87-8.93,15.45-15-.52,6.69.62,12.04,3.43,16.05,2.81,4.01,7.7,5.84,14.67,5.47,4.99-.26,9.7-1.97,14.12-5.1,4.42-3.16,8.86-7.44,13.34-12.88,3.53-4.34,7.12-9.16,10.77-14.45,1.47-2.14,2.81-4.41,4.23-6.6l-2.37,17.58c-6.76,7.12-12.58,13.87-17.47,20.27-4.89,6.39-8.58,12.19-11.08,17.43-3.23,6.72-4.42,12.38-3.59,16.97.83,4.58,2.91,8.01,6.24,10.27,3.33,2.28,7.02,3.3,11.07,3.09,5.42-.29,9.78-1.97,13.12-5.05,3.33-3.09,5.97-7.34,7.96-12.75,1.97-5.4,3.59-11.86,4.84-19.37s2.39-15.81,3.43-24.92c6.03-6.25,12.72-12.73,20.05-19.47,7.33-6.72,15.01-13.32,23.02-19.77,1.87-1.54,2.86-3.3,2.97-5.22.1-1.94-.42-3.65-1.56-5.15ZM191.52,140.33c.93-1.14,2.18-1.75,3.75-1.83.72-.04,1.52.15,2.41.57.88.43,1.43,1.31,1.64,2.65.21,1.35-.52,3.47-2.18,6.36l-.93.04c-3.12.17-4.91-.18-5.38-1.05-.47-.85-.7-1.81-.7-2.85,0-1.46.47-2.75,1.41-3.89ZM754.36,224.34c-1.04,3.8-2.13,6.49-3.28,8.06-1.14,1.57-2.5,2.39-4.06,2.48-.62.03-1.21-.17-1.79-.6-.57-.44-.8-1.4-.7-2.86.1-1.45.83-3.57,2.18-6.35,2.08-4.27,5.72-9.72,10.92-16.33-1.15,6.62-2.24,11.82-3.28,15.61Z"/>
      </g>
    </g>
  </g>
</svg>